<svg xmlns="http://www.w3.org/2000/svg" xmlns:xlink="http://www.w3.org/1999/xlink" width="48" zoomAndPan="magnify" viewBox="0 0 36 36.000001" height="48" preserveAspectRatio="xMidYMid meet" version="1.0"><defs><clipPath id="53a53a09ab"><path d="M 1.070312 8 L 34.636719 8 L 34.636719 26.96875 L 1.070312 26.96875 Z M 1.070312 8 " clip-rule="nonzero"/></clipPath></defs><g clip-path="url(#53a53a09ab)"><path fill="#703bf7" d="M 34.898438 27.699219 C 34.550781 27.472656 34.136719 27.355469 33.78125 27.167969 C 33.792969 27.136719 33.835938 27.152344 33.863281 27.148438 C 34.113281 27.148438 34.359375 27.152344 34.605469 27.152344 C 34.65625 27.144531 34.742188 27.171875 34.761719 27.109375 C 34.757812 27.011719 34.777344 26.898438 34.75 26.804688 C 34.671875 26.71875 34.546875 26.886719 34.566406 26.648438 C 34.5625 26.402344 34.5625 26.15625 34.558594 25.910156 C 34.550781 25.859375 34.582031 25.761719 34.511719 25.753906 C 34.171875 25.746094 33.832031 25.734375 33.492188 25.742188 C 33.410156 25.757812 33.457031 26.167969 33.4375 26.261719 C 33.433594 26.335938 33.425781 26.339844 33.355469 26.34375 C 33.253906 26.34375 33.25 26.339844 33.246094 26.234375 C 33.246094 26.175781 33.25 26.121094 33.25 26.066406 C 33.246094 25.636719 33.253906 25.207031 33.246094 24.78125 C 33.25 24.726562 33.195312 24.722656 33.15625 24.726562 C 33.046875 24.734375 33.046875 24.714844 33.042969 24.617188 C 33.027344 23.902344 33.050781 23.183594 33.015625 22.46875 C 32.957031 22.460938 32.925781 22.507812 32.886719 22.539062 C 32.496094 22.839844 32.058594 23.113281 31.695312 23.429688 C 31.640625 24.082031 31.683594 24.753906 31.664062 25.410156 C 31.664062 25.609375 31.667969 25.8125 31.667969 26.011719 C 31.660156 26.050781 31.675781 26.117188 31.632812 26.132812 C 31.5625 26.117188 31.597656 25.648438 31.578125 25.554688 C 31.585938 25.359375 31.550781 25.390625 31.382812 25.390625 C 31.324219 25.390625 31.335938 25.320312 31.335938 25.28125 C 31.339844 24.878906 31.347656 24.480469 31.347656 24.078125 C 31.351562 23.886719 31.371094 23.910156 31.179688 23.910156 C 31.003906 23.910156 31.015625 23.921875 31.015625 23.742188 C 31.011719 22.980469 31.019531 22.214844 31.015625 21.453125 C 31.011719 21.4375 31.003906 21.421875 30.992188 21.410156 C 30.988281 21.40625 30.964844 21.414062 30.957031 21.425781 C 30.710938 21.644531 30.464844 21.867188 30.214844 22.082031 C 30.089844 22.191406 30.152344 22.386719 30.125 22.535156 C 30.148438 22.792969 29.949219 22.625 29.8125 22.699219 C 29.785156 22.882812 29.789062 23.070312 29.785156 23.253906 C 29.777344 23.320312 29.808594 23.421875 29.707031 23.410156 C 29.601562 23.414062 29.496094 23.414062 29.386719 23.414062 C 29.21875 23.414062 29.230469 23.425781 29.230469 23.257812 C 29.234375 21.390625 29.238281 19.523438 29.230469 17.65625 C 29.230469 17.570312 29.203125 17.519531 29.128906 17.476562 C 28.90625 17.335938 28.6875 17.1875 28.464844 17.039062 C 27.792969 16.597656 27.140625 16.097656 26.449219 15.699219 C 26.394531 18.535156 26.429688 21.378906 26.410156 24.21875 C 26.410156 24.335938 26.40625 24.335938 26.292969 24.332031 C 26.195312 24.332031 26.191406 24.328125 26.191406 24.230469 C 26.1875 22.21875 26.195312 20.210938 26.1875 18.199219 C 26.183594 18.113281 26.179688 18.109375 26.097656 18.109375 C 25.84375 18.109375 25.585938 18.109375 25.332031 18.105469 C 25.210938 18.105469 25.210938 18.101562 25.210938 18.230469 C 25.210938 18.683594 25.210938 19.132812 25.207031 19.585938 C 25.238281 19.683594 24.816406 19.609375 24.746094 19.625 C 24.644531 19.605469 24.699219 19.863281 24.683594 19.933594 C 24.679688 20.644531 24.6875 21.359375 24.679688 22.070312 C 24.679688 22.105469 24.660156 22.121094 24.628906 22.121094 C 24.347656 22.121094 24.070312 22.121094 23.789062 22.125 C 23.699219 22.125 23.699219 22.125 23.695312 22.21875 C 23.675781 23.222656 23.679688 24.230469 23.675781 25.234375 C 23.675781 25.363281 23.671875 25.363281 23.539062 25.363281 C 23.507812 25.363281 23.488281 25.339844 23.488281 25.308594 C 23.472656 22.570312 23.488281 19.828125 23.480469 17.085938 C 23.480469 17 23.472656 16.996094 23.394531 16.996094 C 23.292969 16.996094 23.191406 17.003906 23.085938 17.003906 C 22.890625 17.007812 22.910156 17.019531 22.910156 16.824219 C 22.890625 15.265625 22.949219 13.65625 22.898438 12.117188 C 22.878906 12.113281 22.851562 12.140625 22.832031 12.160156 C 22.710938 12.285156 22.589844 12.40625 22.472656 12.535156 C 22.042969 13.003906 21.613281 13.476562 21.183594 13.945312 C 21.117188 14.015625 21.085938 14.085938 21.085938 14.179688 C 21.070312 15.15625 21.085938 16.136719 21.074219 17.113281 C 21.074219 17.199219 20.957031 17.167969 20.898438 17.175781 C 20.71875 17.175781 20.535156 17.175781 20.355469 17.175781 C 20.179688 17.175781 20.203125 17.164062 20.203125 17.324219 C 20.199219 17.847656 20.195312 18.375 20.1875 18.902344 C 20.183594 19.011719 20.183594 19.015625 20.066406 19.015625 C 19.847656 19.019531 19.628906 19.019531 19.410156 19.019531 C 19.351562 19.023438 19.34375 19.027344 19.34375 19.085938 C 19.332031 20.105469 19.339844 21.125 19.335938 22.144531 C 19.335938 22.238281 19.332031 22.332031 19.332031 22.421875 C 19.328125 22.5 19.3125 22.507812 19.238281 22.511719 C 19.179688 22.507812 19.128906 22.515625 19.128906 22.4375 C 19.132812 20.347656 19.128906 18.257812 19.125 16.167969 C 19.125 14.273438 19.128906 12.378906 19.125 10.484375 C 19.132812 10.394531 19.054688 10.363281 18.996094 10.316406 C 17.941406 9.550781 16.90625 8.753906 15.847656 8 C 15.714844 10.859375 15.84375 13.921875 15.800781 16.847656 C 15.796875 16.847656 15.792969 16.847656 15.789062 16.847656 C 15.785156 19.796875 15.796875 22.75 15.789062 25.703125 C 15.8125 25.789062 15.472656 25.726562 15.421875 25.742188 C 15.28125 21.277344 15.414062 16.652344 15.371094 12.136719 C 15.363281 12.074219 15.402344 11.96875 15.308594 11.964844 C 14.910156 11.960938 14.507812 11.960938 14.109375 11.960938 C 14.078125 11.953125 14.027344 11.964844 14.019531 11.996094 C 13.996094 12.738281 14.019531 13.476562 14.003906 14.21875 C 14.046875 14.308594 13.351562 14.257812 13.261719 14.273438 C 13.09375 14.265625 13.121094 14.304688 13.117188 14.449219 C 13.113281 18.128906 13.105469 21.8125 13.105469 25.496094 C 13.105469 25.617188 13.105469 25.617188 12.984375 25.621094 C 12.796875 25.613281 12.796875 25.648438 12.800781 25.445312 C 12.800781 23.828125 12.800781 22.214844 12.800781 20.597656 C 12.800781 20.105469 12.800781 19.613281 12.800781 19.117188 C 12.800781 19.042969 12.792969 19.035156 12.722656 19.03125 C 11.859375 19.027344 10.992188 19.023438 10.125 19.023438 C 10.09375 19.023438 10.074219 19.042969 10.074219 19.074219 C 10.070312 20.023438 10.078125 20.972656 10.074219 21.921875 C 10.074219 22.082031 10.085938 22.074219 9.921875 22.074219 C 9.558594 22.074219 9.195312 22.074219 8.832031 22.078125 C 8.761719 22.078125 8.753906 22.082031 8.753906 22.15625 C 8.714844 23.585938 8.746094 25.015625 8.734375 26.445312 C 8.730469 26.492188 8.71875 26.507812 8.679688 26.507812 C 8.570312 26.507812 8.464844 26.507812 8.355469 26.507812 C 8.3125 26.507812 8.300781 26.496094 8.300781 26.449219 C 8.277344 24.800781 8.300781 23.152344 8.28125 21.503906 C 8.269531 21.417969 8.320312 21.296875 8.226562 21.25 C 7.535156 20.851562 6.859375 20.433594 6.164062 20.042969 C 6.128906 20.023438 6.109375 20.035156 6.109375 20.070312 C 6.101562 20.378906 6.101562 20.6875 6.101562 20.992188 C 6.097656 22.082031 6.105469 23.171875 6.097656 24.261719 C 6.101562 24.347656 6.015625 24.320312 5.957031 24.324219 C 5.855469 24.328125 5.753906 24.328125 5.652344 24.328125 C 5.578125 24.328125 5.574219 24.332031 5.570312 24.410156 C 5.5625 24.941406 5.558594 25.472656 5.554688 26 C 5.550781 26.195312 5.554688 26.394531 5.550781 26.589844 C 5.550781 26.660156 5.535156 26.667969 5.46875 26.667969 C 5.386719 26.675781 5.398438 26.605469 5.398438 26.550781 C 5.402344 25.5625 5.394531 24.574219 5.402344 23.589844 C 5.40625 23.523438 5.378906 23.488281 5.324219 23.457031 C 4.773438 23.152344 4.238281 22.828125 3.691406 22.515625 C 3.582031 22.441406 3.585938 22.492188 3.589844 22.613281 C 3.585938 23.445312 3.585938 24.28125 3.578125 25.113281 C 3.582031 25.234375 3.445312 25.175781 3.367188 25.1875 C 3.191406 25.1875 3.207031 25.160156 3.207031 25.335938 C 3.203125 25.726562 3.199219 26.117188 3.191406 26.511719 C 3.199219 26.816406 3.109375 26.699219 2.84375 26.714844 C 2.792969 26.710938 2.78125 26.695312 2.78125 26.640625 C 2.777344 26.511719 2.777344 26.382812 2.777344 26.25 C 2.777344 26.183594 2.769531 26.175781 2.707031 26.175781 C 2.417969 26.175781 2.128906 26.171875 1.839844 26.171875 C 1.773438 26.171875 1.765625 26.179688 1.761719 26.242188 C 1.757812 26.371094 1.753906 26.503906 1.75 26.632812 C 1.746094 26.804688 1.753906 26.789062 1.585938 26.789062 C 1.445312 26.800781 1.042969 26.742188 1.074219 26.835938 C 1.101562 27.136719 0.960938 27.183594 1.339844 27.167969 C 9.402344 27.246094 17.480469 27.050781 25.539062 27.246094 C 27.128906 27.460938 28.710938 27.746094 30.234375 28.261719 C 30.714844 28.425781 31.195312 28.589844 31.660156 28.789062 C 31.761719 28.832031 31.851562 28.839844 31.957031 28.800781 C 32.21875 28.710938 32.488281 28.632812 32.753906 28.550781 C 32.804688 28.535156 32.863281 28.539062 32.898438 28.492188 C 31.9375 27.847656 30.796875 27.546875 29.714844 27.1875 C 30.355469 27.160156 31.007812 27.1875 31.652344 27.175781 C 31.9375 27.179688 32.191406 27.3125 32.457031 27.398438 C 32.804688 27.527344 33.15625 27.65625 33.492188 27.8125 C 33.6875 27.878906 33.996094 28.128906 34.183594 28.039062 C 34.417969 27.945312 34.648438 27.839844 34.890625 27.777344 C 34.929688 27.765625 34.933594 27.71875 34.898438 27.699219 Z M 34.898438 27.699219 " fill-opacity="1" fill-rule="nonzero"/></g></svg>